<svg width="1512" height="518" viewBox="0 0 1512 518" fill="none" xmlns="http://www.w3.org/2000/svg">
<mask id="mask0_6_744" style="mask-type:alpha" maskUnits="userSpaceOnUse" x="1415" y="421" width="136" height="136">
<rect x="1550.15" y="496.454" width="5.62848" height="106.709" transform="rotate(135 1550.15 496.454)" fill="#38B290"/>
<rect x="1541.2" y="505.409" width="5.62848" height="106.709" transform="rotate(135 1541.2 505.409)" fill="#38B290"/>
<rect x="1531.25" y="515.359" width="5.62848" height="106.709" transform="rotate(135 1531.25 515.359)" fill="#38B290"/>
<rect x="1522.29" y="524.314" width="5.62848" height="106.709" transform="rotate(135 1522.29 524.314)" fill="#38B290"/>
<rect x="1513.34" y="533.269" width="5.62848" height="106.709" transform="rotate(135 1513.34 533.269)" fill="#38B290"/>
<rect x="1494.43" y="552.173" width="5.62848" height="106.709" transform="rotate(135 1494.43 552.173)" fill="#38B290"/>
<rect x="1503.39" y="543.219" width="5.62848" height="106.709" transform="rotate(135 1503.39 543.219)" fill="#38B290"/>
</mask>
<g mask="url(#mask0_6_744)">
<rect x="1512.71" y="518.444" width="60" height="60" transform="rotate(-180 1512.71 518.444)" fill="#38B290"/>
</g>
<mask id="mask1_6_744" style="mask-type:alpha" maskUnits="userSpaceOnUse" x="-38" y="421" width="136" height="136">
<rect width="5.62848" height="106.709" transform="matrix(0.707107 0.707107 0.707107 -0.707107 -38 496.454)" fill="#38B290"/>
<rect width="5.62848" height="106.709" transform="matrix(0.707107 0.707107 0.707107 -0.707107 -29.0452 505.409)" fill="#38B290"/>
<rect width="5.62848" height="106.709" transform="matrix(0.707107 0.707107 0.707107 -0.707107 -19.0953 515.359)" fill="#38B290"/>
<rect width="5.62848" height="106.709" transform="matrix(0.707107 0.707107 0.707107 -0.707107 -10.1405 524.314)" fill="#38B290"/>
<rect width="5.62848" height="106.709" transform="matrix(0.707107 0.707107 0.707107 -0.707107 -1.18561 533.269)" fill="#38B290"/>
<rect width="5.62848" height="106.709" transform="matrix(0.707107 0.707107 0.707107 -0.707107 17.7191 552.173)" fill="#38B290"/>
<rect width="5.62848" height="106.709" transform="matrix(0.707107 0.707107 0.707107 -0.707107 8.76422 543.219)" fill="#38B290"/>
</mask>
<g mask="url(#mask1_6_744)">
<rect width="60" height="60" transform="matrix(1 -8.74228e-08 -8.74228e-08 -1 -0.556091 518.444)" fill="#38B290"/>
</g>
<mask id="mask2_6_744" style="mask-type:alpha" maskUnits="userSpaceOnUse" x="1415" y="180" width="136" height="136">
<rect x="1550.15" y="255.454" width="5.62848" height="106.709" transform="rotate(135 1550.15 255.454)" fill="#38B290"/>
<rect x="1541.2" y="264.409" width="5.62848" height="106.709" transform="rotate(135 1541.2 264.409)" fill="#38B290"/>
<rect x="1531.25" y="274.359" width="5.62848" height="106.709" transform="rotate(135 1531.25 274.359)" fill="#38B290"/>
<rect x="1522.29" y="283.314" width="5.62848" height="106.709" transform="rotate(135 1522.29 283.314)" fill="#38B290"/>
<rect x="1513.34" y="292.269" width="5.62848" height="106.709" transform="rotate(135 1513.34 292.269)" fill="#38B290"/>
<rect x="1494.43" y="311.173" width="5.62848" height="106.709" transform="rotate(135 1494.43 311.173)" fill="#38B290"/>
<rect x="1503.39" y="302.219" width="5.62848" height="106.709" transform="rotate(135 1503.39 302.219)" fill="#38B290"/>
</mask>
<g mask="url(#mask2_6_744)">
<rect x="1512.71" y="277.444" width="60" height="60" transform="rotate(-180 1512.71 277.444)" fill="#38B290"/>
</g>
<mask id="mask3_6_744" style="mask-type:alpha" maskUnits="userSpaceOnUse" x="-38" y="180" width="136" height="136">
<rect width="5.62848" height="106.709" transform="matrix(0.707107 0.707107 0.707107 -0.707107 -38 255.454)" fill="#38B290"/>
<rect width="5.62848" height="106.709" transform="matrix(0.707107 0.707107 0.707107 -0.707107 -29.0452 264.409)" fill="#38B290"/>
<rect width="5.62848" height="106.709" transform="matrix(0.707107 0.707107 0.707107 -0.707107 -19.0953 274.359)" fill="#38B290"/>
<rect width="5.62848" height="106.709" transform="matrix(0.707107 0.707107 0.707107 -0.707107 -10.1405 283.314)" fill="#38B290"/>
<rect width="5.62848" height="106.709" transform="matrix(0.707107 0.707107 0.707107 -0.707107 -1.18561 292.269)" fill="#38B290"/>
<rect width="5.62848" height="106.709" transform="matrix(0.707107 0.707107 0.707107 -0.707107 17.7191 311.173)" fill="#38B290"/>
<rect width="5.62848" height="106.709" transform="matrix(0.707107 0.707107 0.707107 -0.707107 8.76422 302.219)" fill="#38B290"/>
</mask>
<g mask="url(#mask3_6_744)">
<rect width="60" height="60" transform="matrix(1 -8.74228e-08 -8.74228e-08 -1 -0.556091 277.444)" fill="#38B290"/>
</g>
<mask id="mask4_6_744" style="mask-type:alpha" maskUnits="userSpaceOnUse" x="203" y="421" width="136" height="136">
<rect width="5.62848" height="106.709" transform="matrix(0.707107 0.707107 0.707107 -0.707107 203 496.454)" fill="#38B290"/>
<rect width="5.62848" height="106.709" transform="matrix(0.707107 0.707107 0.707107 -0.707107 211.955 505.409)" fill="#38B290"/>
<rect width="5.62848" height="106.709" transform="matrix(0.707107 0.707107 0.707107 -0.707107 221.905 515.359)" fill="#38B290"/>
<rect width="5.62848" height="106.709" transform="matrix(0.707107 0.707107 0.707107 -0.707107 230.859 524.314)" fill="#38B290"/>
<rect width="5.62848" height="106.709" transform="matrix(0.707107 0.707107 0.707107 -0.707107 239.814 533.269)" fill="#38B290"/>
<rect width="5.62848" height="106.709" transform="matrix(0.707107 0.707107 0.707107 -0.707107 258.719 552.174)" fill="#38B290"/>
<rect width="5.62848" height="106.709" transform="matrix(0.707107 0.707107 0.707107 -0.707107 249.764 543.219)" fill="#38B290"/>
</mask>
<g mask="url(#mask4_6_744)">
<rect width="60" height="60" transform="matrix(1 -8.74228e-08 -8.74228e-08 -1 240.444 518.444)" fill="#38B290"/>
</g>
<mask id="mask5_6_744" style="mask-type:alpha" maskUnits="userSpaceOnUse" x="1234" y="301" width="136" height="136">
<rect x="1369.15" y="376.454" width="5.62848" height="106.709" transform="rotate(135 1369.15 376.454)" fill="#38B290"/>
<rect x="1360.2" y="385.409" width="5.62848" height="106.709" transform="rotate(135 1360.2 385.409)" fill="#38B290"/>
<rect x="1350.25" y="395.359" width="5.62848" height="106.709" transform="rotate(135 1350.25 395.359)" fill="#38B290"/>
<rect x="1341.29" y="404.314" width="5.62848" height="106.709" transform="rotate(135 1341.29 404.314)" fill="#38B290"/>
<rect x="1332.34" y="413.269" width="5.62848" height="106.709" transform="rotate(135 1332.34 413.269)" fill="#38B290"/>
<rect x="1313.43" y="432.173" width="5.62848" height="106.709" transform="rotate(135 1313.43 432.173)" fill="#38B290"/>
<rect x="1322.39" y="423.218" width="5.62848" height="106.709" transform="rotate(135 1322.39 423.218)" fill="#38B290"/>
</mask>
<g mask="url(#mask5_6_744)">
<rect x="1331.71" y="398.444" width="60" height="60" transform="rotate(-180 1331.71 398.444)" fill="#38B290"/>
</g>
<mask id="mask6_6_744" style="mask-type:alpha" maskUnits="userSpaceOnUse" x="143" y="301" width="136" height="136">
<rect width="5.62848" height="106.709" transform="matrix(0.707107 0.707107 0.707107 -0.707107 143 376.454)" fill="#38B290"/>
<rect width="5.62848" height="106.709" transform="matrix(0.707107 0.707107 0.707107 -0.707107 151.955 385.409)" fill="#38B290"/>
<rect width="5.62848" height="106.709" transform="matrix(0.707107 0.707107 0.707107 -0.707107 161.905 395.359)" fill="#38B290"/>
<rect width="5.62848" height="106.709" transform="matrix(0.707107 0.707107 0.707107 -0.707107 170.859 404.314)" fill="#38B290"/>
<rect width="5.62848" height="106.709" transform="matrix(0.707107 0.707107 0.707107 -0.707107 179.814 413.269)" fill="#38B290"/>
<rect width="5.62848" height="106.709" transform="matrix(0.707107 0.707107 0.707107 -0.707107 198.719 432.173)" fill="#38B290"/>
<rect width="5.62848" height="106.709" transform="matrix(0.707107 0.707107 0.707107 -0.707107 189.764 423.218)" fill="#38B290"/>
</mask>
<g mask="url(#mask6_6_744)">
<rect width="60" height="60" transform="matrix(1 -8.74228e-08 -8.74228e-08 -1 180.444 398.444)" fill="#38B290"/>
</g>
<mask id="mask7_6_744" style="mask-type:alpha" maskUnits="userSpaceOnUse" x="993" y="301" width="136" height="136">
<rect x="1128.15" y="376.454" width="5.62848" height="106.709" transform="rotate(135 1128.15 376.454)" fill="#38B290"/>
<rect x="1119.2" y="385.409" width="5.62848" height="106.709" transform="rotate(135 1119.2 385.409)" fill="#38B290"/>
<rect x="1109.25" y="395.359" width="5.62848" height="106.709" transform="rotate(135 1109.25 395.359)" fill="#38B290"/>
<rect x="1100.29" y="404.314" width="5.62848" height="106.709" transform="rotate(135 1100.29 404.314)" fill="#38B290"/>
<rect x="1091.34" y="413.269" width="5.62848" height="106.709" transform="rotate(135 1091.34 413.269)" fill="#38B290"/>
<rect x="1072.43" y="432.173" width="5.62848" height="106.709" transform="rotate(135 1072.43 432.173)" fill="#38B290"/>
<rect x="1081.39" y="423.218" width="5.62848" height="106.709" transform="rotate(135 1081.39 423.218)" fill="#38B290"/>
</mask>
<g mask="url(#mask7_6_744)">
<rect x="1090.71" y="398.444" width="60" height="60" transform="rotate(-180 1090.71 398.444)" fill="#38B290"/>
</g>
<mask id="mask8_6_744" style="mask-type:alpha" maskUnits="userSpaceOnUse" x="1294" y="180" width="136" height="136">
<rect x="1429.15" y="255.454" width="5.62848" height="106.709" transform="rotate(135 1429.15 255.454)" fill="#38B290"/>
<rect x="1420.2" y="264.409" width="5.62848" height="106.709" transform="rotate(135 1420.2 264.409)" fill="#38B290"/>
<rect x="1410.25" y="274.359" width="5.62848" height="106.709" transform="rotate(135 1410.25 274.359)" fill="#38B290"/>
<rect x="1401.29" y="283.314" width="5.62848" height="106.709" transform="rotate(135 1401.29 283.314)" fill="#38B290"/>
<rect x="1392.34" y="292.269" width="5.62848" height="106.709" transform="rotate(135 1392.34 292.269)" fill="#38B290"/>
<rect x="1373.43" y="311.173" width="5.62848" height="106.709" transform="rotate(135 1373.43 311.173)" fill="#38B290"/>
<rect x="1382.39" y="302.218" width="5.62848" height="106.709" transform="rotate(135 1382.39 302.218)" fill="#38B290"/>
</mask>
<g mask="url(#mask8_6_744)">
<rect x="1391.71" y="277.444" width="60" height="60" transform="rotate(-180 1391.71 277.444)" fill="#38B290"/>
</g>
<mask id="mask9_6_744" style="mask-type:alpha" maskUnits="userSpaceOnUse" x="83" y="180" width="136" height="136">
<rect width="5.62848" height="106.709" transform="matrix(0.707107 0.707107 0.707107 -0.707107 83 255.454)" fill="#38B290"/>
<rect width="5.62848" height="106.709" transform="matrix(0.707107 0.707107 0.707107 -0.707107 91.9548 264.409)" fill="#38B290"/>
<rect width="5.62848" height="106.709" transform="matrix(0.707107 0.707107 0.707107 -0.707107 101.905 274.359)" fill="#38B290"/>
<rect width="5.62848" height="106.709" transform="matrix(0.707107 0.707107 0.707107 -0.707107 110.859 283.314)" fill="#38B290"/>
<rect width="5.62848" height="106.709" transform="matrix(0.707107 0.707107 0.707107 -0.707107 119.814 292.269)" fill="#38B290"/>
<rect width="5.62848" height="106.709" transform="matrix(0.707107 0.707107 0.707107 -0.707107 138.719 311.173)" fill="#38B290"/>
<rect width="5.62848" height="106.709" transform="matrix(0.707107 0.707107 0.707107 -0.707107 129.764 302.218)" fill="#38B290"/>
</mask>
<g mask="url(#mask9_6_744)">
<rect width="60" height="60" transform="matrix(1 -8.74228e-08 -8.74228e-08 -1 120.444 277.444)" fill="#38B290"/>
</g>
<mask id="mask10_6_744" style="mask-type:alpha" maskUnits="userSpaceOnUse" x="324" y="421" width="136" height="136">
<rect width="5.62848" height="106.709" transform="matrix(0.707107 0.707107 0.707107 -0.707107 324 496.454)" fill="#38B290"/>
<rect width="5.62848" height="106.709" transform="matrix(0.707107 0.707107 0.707107 -0.707107 332.955 505.409)" fill="#38B290"/>
<rect width="5.62848" height="106.709" transform="matrix(0.707107 0.707107 0.707107 -0.707107 342.905 515.359)" fill="#38B290"/>
<rect width="5.62848" height="106.709" transform="matrix(0.707107 0.707107 0.707107 -0.707107 351.859 524.314)" fill="#38B290"/>
<rect width="5.62848" height="106.709" transform="matrix(0.707107 0.707107 0.707107 -0.707107 360.814 533.269)" fill="#38B290"/>
<rect width="5.62848" height="106.709" transform="matrix(0.707107 0.707107 0.707107 -0.707107 379.719 552.173)" fill="#38B290"/>
<rect width="5.62848" height="106.709" transform="matrix(0.707107 0.707107 0.707107 -0.707107 370.764 543.219)" fill="#38B290"/>
</mask>
<g mask="url(#mask10_6_744)">
<rect width="60" height="60" transform="matrix(1 -8.74228e-08 -8.74228e-08 -1 361.444 518.444)" fill="#38B290"/>
</g>
<mask id="mask11_6_744" style="mask-type:alpha" maskUnits="userSpaceOnUse" x="1355" y="241" width="136" height="136">
<rect x="1490.15" y="316.454" width="5.62848" height="106.709" transform="rotate(135 1490.15 316.454)" fill="#38B290"/>
<rect x="1481.2" y="325.409" width="5.62848" height="106.709" transform="rotate(135 1481.2 325.409)" fill="#38B290"/>
<rect x="1471.25" y="335.359" width="5.62848" height="106.709" transform="rotate(135 1471.25 335.359)" fill="#38B290"/>
<rect x="1462.29" y="344.314" width="5.62848" height="106.709" transform="rotate(135 1462.29 344.314)" fill="#38B290"/>
<rect x="1453.34" y="353.269" width="5.62848" height="106.709" transform="rotate(135 1453.34 353.269)" fill="#38B290"/>
<rect x="1434.43" y="372.173" width="5.62848" height="106.709" transform="rotate(135 1434.43 372.173)" fill="#38B290"/>
<rect x="1443.39" y="363.219" width="5.62848" height="106.709" transform="rotate(135 1443.39 363.219)" fill="#38B290"/>
</mask>
<g mask="url(#mask11_6_744)">
<rect x="1452.71" y="338.444" width="60" height="60" transform="rotate(-180 1452.71 338.444)" fill="#314D9D"/>
</g>
<mask id="mask12_6_744" style="mask-type:alpha" maskUnits="userSpaceOnUse" x="385" y="240" width="136" height="136">
<rect width="5.62848" height="106.709" transform="matrix(0.707107 0.707107 0.707107 -0.707107 385 315.454)" fill="#38B290"/>
<rect width="5.62848" height="106.709" transform="matrix(0.707107 0.707107 0.707107 -0.707107 393.955 324.409)" fill="#38B290"/>
<rect width="5.62848" height="106.709" transform="matrix(0.707107 0.707107 0.707107 -0.707107 403.905 334.359)" fill="#38B290"/>
<rect width="5.62848" height="106.709" transform="matrix(0.707107 0.707107 0.707107 -0.707107 412.859 343.314)" fill="#38B290"/>
<rect width="5.62848" height="106.709" transform="matrix(0.707107 0.707107 0.707107 -0.707107 421.814 352.269)" fill="#38B290"/>
<rect width="5.62848" height="106.709" transform="matrix(0.707107 0.707107 0.707107 -0.707107 440.719 371.173)" fill="#38B290"/>
<rect width="5.62848" height="106.709" transform="matrix(0.707107 0.707107 0.707107 -0.707107 431.764 362.219)" fill="#38B290"/>
</mask>
<g mask="url(#mask12_6_744)">
<rect width="60" height="60" transform="matrix(1 -8.74228e-08 -8.74228e-08 -1 422.444 337.444)" fill="#314D9D"/>
</g>
<mask id="mask13_6_744" style="mask-type:alpha" maskUnits="userSpaceOnUse" x="263" y="360" width="136" height="136">
<rect width="5.62848" height="106.709" transform="matrix(0.707107 0.707107 0.707107 -0.707107 263 435.454)" fill="#38B290"/>
<rect width="5.62848" height="106.709" transform="matrix(0.707107 0.707107 0.707107 -0.707107 271.955 444.409)" fill="#38B290"/>
<rect width="5.62848" height="106.709" transform="matrix(0.707107 0.707107 0.707107 -0.707107 281.905 454.359)" fill="#38B290"/>
<rect width="5.62848" height="106.709" transform="matrix(0.707107 0.707107 0.707107 -0.707107 290.859 463.314)" fill="#38B290"/>
<rect width="5.62848" height="106.709" transform="matrix(0.707107 0.707107 0.707107 -0.707107 299.814 472.269)" fill="#38B290"/>
<rect width="5.62848" height="106.709" transform="matrix(0.707107 0.707107 0.707107 -0.707107 318.719 491.173)" fill="#38B290"/>
<rect width="5.62848" height="106.709" transform="matrix(0.707107 0.707107 0.707107 -0.707107 309.764 482.219)" fill="#38B290"/>
</mask>
<g mask="url(#mask13_6_744)">
<rect width="60" height="60" transform="matrix(1 -8.74228e-08 -8.74228e-08 -1 300.444 457.444)" fill="#314D9D"/>
</g>
<mask id="mask14_6_744" style="mask-type:alpha" maskUnits="userSpaceOnUse" x="1355" y="0" width="136" height="136">
<rect x="1490.15" y="75.4544" width="5.62848" height="106.709" transform="rotate(135 1490.15 75.4544)" fill="#38B290"/>
<rect x="1481.2" y="84.4092" width="5.62848" height="106.709" transform="rotate(135 1481.2 84.4092)" fill="#38B290"/>
<rect x="1471.25" y="94.359" width="5.62848" height="106.709" transform="rotate(135 1471.25 94.359)" fill="#38B290"/>
<rect x="1462.29" y="103.314" width="5.62848" height="106.709" transform="rotate(135 1462.29 103.314)" fill="#38B290"/>
<rect x="1453.34" y="112.269" width="5.62848" height="106.709" transform="rotate(135 1453.34 112.269)" fill="#38B290"/>
<rect x="1434.43" y="131.173" width="5.62848" height="106.709" transform="rotate(135 1434.43 131.173)" fill="#38B290"/>
<rect x="1443.39" y="122.219" width="5.62848" height="106.709" transform="rotate(135 1443.39 122.219)" fill="#38B290"/>
</mask>
<g mask="url(#mask14_6_744)">
<rect x="1452.71" y="97.4439" width="60" height="60" transform="rotate(-180 1452.71 97.4439)" fill="#314D9D"/>
</g>
<mask id="mask15_6_744" style="mask-type:alpha" maskUnits="userSpaceOnUse" x="22" y="0" width="136" height="136">
<rect width="5.62848" height="106.709" transform="matrix(0.707107 0.707107 0.707107 -0.707107 22 75.4544)" fill="#38B290"/>
<rect width="5.62848" height="106.709" transform="matrix(0.707107 0.707107 0.707107 -0.707107 30.9548 84.4092)" fill="#38B290"/>
<rect width="5.62848" height="106.709" transform="matrix(0.707107 0.707107 0.707107 -0.707107 40.9047 94.359)" fill="#38B290"/>
<rect width="5.62848" height="106.709" transform="matrix(0.707107 0.707107 0.707107 -0.707107 49.8595 103.314)" fill="#38B290"/>
<rect width="5.62848" height="106.709" transform="matrix(0.707107 0.707107 0.707107 -0.707107 58.8144 112.269)" fill="#38B290"/>
<rect width="5.62848" height="106.709" transform="matrix(0.707107 0.707107 0.707107 -0.707107 77.7191 131.173)" fill="#38B290"/>
<rect width="5.62848" height="106.709" transform="matrix(0.707107 0.707107 0.707107 -0.707107 68.7642 122.219)" fill="#38B290"/>
</mask>
<g mask="url(#mask15_6_744)">
<rect width="60" height="60" transform="matrix(1 -8.74228e-08 -8.74228e-08 -1 59.4439 97.4439)" fill="#314D9D"/>
</g>
<rect x="1452.15" y="518.153" width="60" height="60" transform="rotate(-180 1452.15 518.153)" fill="url(#paint0_linear_6_744)"/>
<rect width="60" height="60" transform="matrix(1 -8.74228e-08 -8.74228e-08 -1 60 518.153)" fill="url(#paint1_linear_6_744)"/>
<rect width="60" height="60" transform="matrix(1 -8.74228e-08 -8.74228e-08 -1 180 459)" fill="url(#paint2_linear_6_744)"/>
<rect x="1452.15" y="277.153" width="60" height="60" transform="rotate(-180 1452.15 277.153)" fill="url(#paint3_linear_6_744)"/>
<rect width="60" height="60" transform="matrix(1 -8.74228e-08 -8.74228e-08 -1 60 277.153)" fill="url(#paint4_linear_6_744)"/>
<rect width="60" height="60" transform="matrix(1 -8.74228e-08 -8.74228e-08 -1 301 518.153)" fill="url(#paint5_linear_6_744)"/>
<rect x="1392.15" y="338.153" width="60" height="60" transform="rotate(-180 1392.15 338.153)" fill="url(#paint6_linear_6_744)"/>
<rect width="60" height="60" transform="matrix(1 -8.74228e-08 -8.74228e-08 -1 120 338.153)" fill="url(#paint7_linear_6_744)"/>
<rect x="1331.15" y="217.153" width="60" height="60" transform="rotate(-180 1331.15 217.153)" fill="url(#paint8_linear_6_744)"/>
<rect width="60" height="60" transform="matrix(1 -8.74228e-08 -8.74228e-08 -1 181 217.153)" fill="url(#paint9_linear_6_744)"/>
<rect x="1512.15" y="458.153" width="60" height="60" transform="rotate(-180 1512.15 458.153)" fill="url(#paint10_linear_6_744)"/>
<rect width="60" height="60" transform="matrix(1 -8.74228e-08 -8.74228e-08 -1 0 458.153)" fill="url(#paint11_linear_6_744)"/>
<rect width="60" height="60" transform="matrix(1 -8.74228e-08 -8.74228e-08 -1 602 399)" fill="url(#paint12_linear_6_744)"/>
<rect x="1512.15" y="217.153" width="60" height="60" transform="rotate(-180 1512.15 217.153)" fill="url(#paint13_linear_6_744)"/>
<rect width="60" height="60" transform="matrix(1 -8.74228e-08 -8.74228e-08 -1 0 217.153)" fill="url(#paint14_linear_6_744)"/>
<rect x="1271.15" y="338.153" width="60" height="60" transform="rotate(-180 1271.15 338.153)" fill="url(#paint15_linear_6_744)"/>
<rect width="60" height="60" transform="matrix(1 -8.74228e-08 -8.74228e-08 -1 361 398)" fill="url(#paint16_linear_6_744)"/>
<rect x="1392.15" y="398.153" width="60" height="60" transform="rotate(-180 1392.15 398.153)" fill="url(#paint17_linear_6_744)"/>
<rect width="60" height="60" transform="matrix(1 -8.74228e-08 -8.74228e-08 -1 120 398.153)" fill="url(#paint18_linear_6_744)"/>
<rect x="1392.15" y="157.153" width="60" height="60" transform="rotate(-180 1392.15 157.153)" fill="url(#paint19_linear_6_744)"/>
<rect width="60" height="60" transform="matrix(1 -8.74228e-08 -8.74228e-08 -1 120 157.153)" fill="url(#paint20_linear_6_744)"/>
<circle cx="1448.15" cy="454.153" r="4" transform="rotate(-180 1448.15 454.153)" fill="#314D9D"/>
<circle cx="1448.15" cy="441.153" r="4" transform="rotate(-180 1448.15 441.153)" fill="#314D9D"/>
<circle cx="1448.15" cy="428.153" r="4" transform="rotate(-180 1448.15 428.153)" fill="#314D9D"/>
<circle cx="1448.15" cy="415.153" r="4" transform="rotate(-180 1448.15 415.153)" fill="#314D9D"/>
<circle cx="1448.15" cy="402.153" r="4" transform="rotate(-180 1448.15 402.153)" fill="#314D9D"/>
<circle cx="1435.15" cy="454.153" r="4" transform="rotate(-180 1435.15 454.153)" fill="#314D9D"/>
<circle cx="1435.15" cy="441.153" r="4" transform="rotate(-180 1435.15 441.153)" fill="#314D9D"/>
<circle cx="1435.15" cy="428.153" r="4" transform="rotate(-180 1435.15 428.153)" fill="#314D9D"/>
<circle cx="1435.15" cy="415.153" r="4" transform="rotate(-180 1435.15 415.153)" fill="#314D9D"/>
<circle cx="1435.15" cy="402.153" r="4" transform="rotate(-180 1435.15 402.153)" fill="#314D9D"/>
<circle cx="1422.15" cy="454.153" r="4" transform="rotate(-180 1422.15 454.153)" fill="#314D9D"/>
<circle cx="1422.15" cy="441.153" r="4" transform="rotate(-180 1422.15 441.153)" fill="#314D9D"/>
<circle cx="1422.15" cy="428.153" r="4" transform="rotate(-180 1422.15 428.153)" fill="#314D9D"/>
<circle cx="1422.15" cy="415.153" r="4" transform="rotate(-180 1422.15 415.153)" fill="#314D9D"/>
<circle cx="1422.15" cy="402.153" r="4" transform="rotate(-180 1422.15 402.153)" fill="#314D9D"/>
<circle cx="1409.15" cy="454.153" r="4" transform="rotate(-180 1409.15 454.153)" fill="#314D9D"/>
<circle cx="1409.15" cy="441.153" r="4" transform="rotate(-180 1409.15 441.153)" fill="#314D9D"/>
<circle cx="1409.15" cy="428.153" r="4" transform="rotate(-180 1409.15 428.153)" fill="#314D9D"/>
<circle cx="1409.15" cy="415.153" r="4" transform="rotate(-180 1409.15 415.153)" fill="#314D9D"/>
<circle cx="1409.15" cy="402.153" r="4" transform="rotate(-180 1409.15 402.153)" fill="#314D9D"/>
<circle cx="1396.15" cy="454.153" r="4" transform="rotate(-180 1396.15 454.153)" fill="#314D9D"/>
<circle cx="1396.15" cy="441.153" r="4" transform="rotate(-180 1396.15 441.153)" fill="#314D9D"/>
<circle cx="1396.15" cy="428.153" r="4" transform="rotate(-180 1396.15 428.153)" fill="#314D9D"/>
<circle cx="1396.15" cy="415.153" r="4" transform="rotate(-180 1396.15 415.153)" fill="#314D9D"/>
<circle cx="1396.15" cy="402.153" r="4" transform="rotate(-180 1396.15 402.153)" fill="#314D9D"/>
<circle cx="965" cy="334" r="4" transform="rotate(-180 965 334)" fill="#314D9D"/>
<circle cx="965" cy="321" r="4" transform="rotate(-180 965 321)" fill="#314D9D"/>
<circle cx="965" cy="308" r="4" transform="rotate(-180 965 308)" fill="#314D9D"/>
<circle cx="965" cy="295" r="4" transform="rotate(-180 965 295)" fill="#314D9D"/>
<circle cx="965" cy="282" r="4" transform="rotate(-180 965 282)" fill="#314D9D"/>
<circle cx="952" cy="334" r="4" transform="rotate(-180 952 334)" fill="#314D9D"/>
<circle cx="952" cy="321" r="4" transform="rotate(-180 952 321)" fill="#314D9D"/>
<circle cx="952" cy="308" r="4" transform="rotate(-180 952 308)" fill="#314D9D"/>
<circle cx="952" cy="295" r="4" transform="rotate(-180 952 295)" fill="#314D9D"/>
<circle cx="952" cy="282" r="4" transform="rotate(-180 952 282)" fill="#314D9D"/>
<circle cx="939" cy="334" r="4" transform="rotate(-180 939 334)" fill="#314D9D"/>
<circle cx="939" cy="321" r="4" transform="rotate(-180 939 321)" fill="#314D9D"/>
<circle cx="939" cy="308" r="4" transform="rotate(-180 939 308)" fill="#314D9D"/>
<circle cx="939" cy="295" r="4" transform="rotate(-180 939 295)" fill="#314D9D"/>
<circle cx="939" cy="282" r="4" transform="rotate(-180 939 282)" fill="#314D9D"/>
<circle cx="926" cy="334" r="4" transform="rotate(-180 926 334)" fill="#314D9D"/>
<circle cx="926" cy="321" r="4" transform="rotate(-180 926 321)" fill="#314D9D"/>
<circle cx="926" cy="308" r="4" transform="rotate(-180 926 308)" fill="#314D9D"/>
<circle cx="926" cy="295" r="4" transform="rotate(-180 926 295)" fill="#314D9D"/>
<circle cx="926" cy="282" r="4" transform="rotate(-180 926 282)" fill="#314D9D"/>
<circle cx="913" cy="334" r="4" transform="rotate(-180 913 334)" fill="#314D9D"/>
<circle cx="913" cy="321" r="4" transform="rotate(-180 913 321)" fill="#314D9D"/>
<circle cx="913" cy="308" r="4" transform="rotate(-180 913 308)" fill="#314D9D"/>
<circle cx="913" cy="295" r="4" transform="rotate(-180 913 295)" fill="#314D9D"/>
<circle cx="913" cy="282" r="4" transform="rotate(-180 913 282)" fill="#314D9D"/>
<circle r="4" transform="matrix(1 -8.74228e-08 -8.74228e-08 -1 64 454.153)" fill="#314D9D"/>
<circle r="4" transform="matrix(1 -8.74228e-08 -8.74228e-08 -1 64 441.153)" fill="#314D9D"/>
<circle r="4" transform="matrix(1 -8.74228e-08 -8.74228e-08 -1 64 428.153)" fill="#314D9D"/>
<circle r="4" transform="matrix(1 -8.74228e-08 -8.74228e-08 -1 64 415.153)" fill="#314D9D"/>
<circle r="4" transform="matrix(1 -8.74228e-08 -8.74228e-08 -1 64 402.153)" fill="#314D9D"/>
<circle r="4" transform="matrix(1 -8.74228e-08 -8.74228e-08 -1 77 454.153)" fill="#314D9D"/>
<circle r="4" transform="matrix(1 -8.74228e-08 -8.74228e-08 -1 77 441.153)" fill="#314D9D"/>
<circle r="4" transform="matrix(1 -8.74228e-08 -8.74228e-08 -1 77 428.153)" fill="#314D9D"/>
<circle r="4" transform="matrix(1 -8.74228e-08 -8.74228e-08 -1 77 415.153)" fill="#314D9D"/>
<circle r="4" transform="matrix(1 -8.74228e-08 -8.74228e-08 -1 77 402.153)" fill="#314D9D"/>
<circle r="4" transform="matrix(1 -8.74228e-08 -8.74228e-08 -1 90 454.153)" fill="#314D9D"/>
<circle r="4" transform="matrix(1 -8.74228e-08 -8.74228e-08 -1 90 441.153)" fill="#314D9D"/>
<circle r="4" transform="matrix(1 -8.74228e-08 -8.74228e-08 -1 90 428.153)" fill="#314D9D"/>
<circle r="4" transform="matrix(1 -8.74228e-08 -8.74228e-08 -1 90 415.153)" fill="#314D9D"/>
<circle r="4" transform="matrix(1 -8.74228e-08 -8.74228e-08 -1 90 402.153)" fill="#314D9D"/>
<circle r="4" transform="matrix(1 -8.74228e-08 -8.74228e-08 -1 103 454.153)" fill="#314D9D"/>
<circle r="4" transform="matrix(1 -8.74228e-08 -8.74228e-08 -1 103 441.153)" fill="#314D9D"/>
<circle r="4" transform="matrix(1 -8.74228e-08 -8.74228e-08 -1 103 428.153)" fill="#314D9D"/>
<circle r="4" transform="matrix(1 -8.74228e-08 -8.74228e-08 -1 103 415.153)" fill="#314D9D"/>
<circle r="4" transform="matrix(1 -8.74228e-08 -8.74228e-08 -1 103 402.153)" fill="#314D9D"/>
<circle r="4" transform="matrix(1 -8.74228e-08 -8.74228e-08 -1 116 454.153)" fill="#314D9D"/>
<circle r="4" transform="matrix(1 -8.74228e-08 -8.74228e-08 -1 116 441.153)" fill="#314D9D"/>
<circle r="4" transform="matrix(1 -8.74228e-08 -8.74228e-08 -1 116 428.153)" fill="#314D9D"/>
<circle r="4" transform="matrix(1 -8.74228e-08 -8.74228e-08 -1 116 415.153)" fill="#314D9D"/>
<circle r="4" transform="matrix(1 -8.74228e-08 -8.74228e-08 -1 116 402.153)" fill="#314D9D"/>
<circle cx="1448.15" cy="213.153" r="4" transform="rotate(-180 1448.15 213.153)" fill="#314D9D"/>
<circle cx="1448.15" cy="200.153" r="4" transform="rotate(-180 1448.15 200.153)" fill="#314D9D"/>
<circle cx="1448.15" cy="187.153" r="4" transform="rotate(-180 1448.15 187.153)" fill="#314D9D"/>
<circle cx="1448.15" cy="174.153" r="4" transform="rotate(-180 1448.15 174.153)" fill="#314D9D"/>
<circle cx="1448.15" cy="161.153" r="4" transform="rotate(-180 1448.15 161.153)" fill="#314D9D"/>
<circle cx="1435.15" cy="213.153" r="4" transform="rotate(-180 1435.15 213.153)" fill="#314D9D"/>
<circle cx="1435.15" cy="200.153" r="4" transform="rotate(-180 1435.15 200.153)" fill="#314D9D"/>
<circle cx="1435.15" cy="187.153" r="4" transform="rotate(-180 1435.15 187.153)" fill="#314D9D"/>
<circle cx="1435.15" cy="174.153" r="4" transform="rotate(-180 1435.15 174.153)" fill="#314D9D"/>
<circle cx="1435.15" cy="161.153" r="4" transform="rotate(-180 1435.15 161.153)" fill="#314D9D"/>
<circle cx="1422.15" cy="213.153" r="4" transform="rotate(-180 1422.15 213.153)" fill="#314D9D"/>
<circle cx="1422.15" cy="200.153" r="4" transform="rotate(-180 1422.15 200.153)" fill="#314D9D"/>
<circle cx="1422.15" cy="187.153" r="4" transform="rotate(-180 1422.15 187.153)" fill="#314D9D"/>
<circle cx="1422.15" cy="174.153" r="4" transform="rotate(-180 1422.15 174.153)" fill="#314D9D"/>
<circle cx="1422.15" cy="161.153" r="4" transform="rotate(-180 1422.15 161.153)" fill="#314D9D"/>
<circle cx="1409.15" cy="213.153" r="4" transform="rotate(-180 1409.15 213.153)" fill="#314D9D"/>
<circle cx="1409.15" cy="200.153" r="4" transform="rotate(-180 1409.15 200.153)" fill="#314D9D"/>
<circle cx="1409.15" cy="187.153" r="4" transform="rotate(-180 1409.15 187.153)" fill="#314D9D"/>
<circle cx="1409.15" cy="174.153" r="4" transform="rotate(-180 1409.15 174.153)" fill="#314D9D"/>
<circle cx="1409.15" cy="161.153" r="4" transform="rotate(-180 1409.15 161.153)" fill="#314D9D"/>
<circle cx="1396.15" cy="213.153" r="4" transform="rotate(-180 1396.15 213.153)" fill="#314D9D"/>
<circle cx="1396.15" cy="200.153" r="4" transform="rotate(-180 1396.15 200.153)" fill="#314D9D"/>
<circle cx="1396.15" cy="187.153" r="4" transform="rotate(-180 1396.15 187.153)" fill="#314D9D"/>
<circle cx="1396.15" cy="174.153" r="4" transform="rotate(-180 1396.15 174.153)" fill="#314D9D"/>
<circle cx="1396.15" cy="161.153" r="4" transform="rotate(-180 1396.15 161.153)" fill="#314D9D"/>
<circle r="4" transform="matrix(1 -8.74228e-08 -8.74228e-08 -1 64 213.153)" fill="#314D9D"/>
<circle r="4" transform="matrix(1 -8.74228e-08 -8.74228e-08 -1 64 200.153)" fill="#314D9D"/>
<circle r="4" transform="matrix(1 -8.74228e-08 -8.74228e-08 -1 64 187.153)" fill="#314D9D"/>
<circle r="4" transform="matrix(1 -8.74228e-08 -8.74228e-08 -1 64 174.153)" fill="#314D9D"/>
<circle r="4" transform="matrix(1 -8.74228e-08 -8.74228e-08 -1 64 161.153)" fill="#314D9D"/>
<circle r="4" transform="matrix(1 -8.74228e-08 -8.74228e-08 -1 77 213.153)" fill="#314D9D"/>
<circle r="4" transform="matrix(1 -8.74228e-08 -8.74228e-08 -1 77 200.153)" fill="#314D9D"/>
<circle r="4" transform="matrix(1 -8.74228e-08 -8.74228e-08 -1 77 187.153)" fill="#314D9D"/>
<circle r="4" transform="matrix(1 -8.74228e-08 -8.74228e-08 -1 77 174.153)" fill="#314D9D"/>
<circle r="4" transform="matrix(1 -8.74228e-08 -8.74228e-08 -1 77 161.153)" fill="#314D9D"/>
<circle r="4" transform="matrix(1 -8.74228e-08 -8.74228e-08 -1 90 213.153)" fill="#314D9D"/>
<circle r="4" transform="matrix(1 -8.74228e-08 -8.74228e-08 -1 90 200.153)" fill="#314D9D"/>
<circle r="4" transform="matrix(1 -8.74228e-08 -8.74228e-08 -1 90 187.153)" fill="#314D9D"/>
<circle r="4" transform="matrix(1 -8.74228e-08 -8.74228e-08 -1 90 174.153)" fill="#314D9D"/>
<circle r="4" transform="matrix(1 -8.74228e-08 -8.74228e-08 -1 90 161.153)" fill="#314D9D"/>
<circle r="4" transform="matrix(1 -8.74228e-08 -8.74228e-08 -1 103 213.153)" fill="#314D9D"/>
<circle r="4" transform="matrix(1 -8.74228e-08 -8.74228e-08 -1 103 200.153)" fill="#314D9D"/>
<circle r="4" transform="matrix(1 -8.74228e-08 -8.74228e-08 -1 103 187.153)" fill="#314D9D"/>
<circle r="4" transform="matrix(1 -8.74228e-08 -8.74228e-08 -1 103 174.153)" fill="#314D9D"/>
<circle r="4" transform="matrix(1 -8.74228e-08 -8.74228e-08 -1 103 161.153)" fill="#314D9D"/>
<circle r="4" transform="matrix(1 -8.74228e-08 -8.74228e-08 -1 116 213.153)" fill="#314D9D"/>
<circle r="4" transform="matrix(1 -8.74228e-08 -8.74228e-08 -1 116 200.153)" fill="#314D9D"/>
<circle r="4" transform="matrix(1 -8.74228e-08 -8.74228e-08 -1 116 187.153)" fill="#314D9D"/>
<circle r="4" transform="matrix(1 -8.74228e-08 -8.74228e-08 -1 116 174.153)" fill="#314D9D"/>
<circle r="4" transform="matrix(1 -8.74228e-08 -8.74228e-08 -1 116 161.153)" fill="#314D9D"/>
<circle cx="1207.15" cy="334.153" r="4" transform="rotate(-180 1207.15 334.153)" fill="#314D9D"/>
<circle cx="1207.15" cy="321.153" r="4" transform="rotate(-180 1207.15 321.153)" fill="#314D9D"/>
<circle cx="1207.15" cy="308.153" r="4" transform="rotate(-180 1207.15 308.153)" fill="#314D9D"/>
<circle cx="1207.15" cy="295.153" r="4" transform="rotate(-180 1207.15 295.153)" fill="#314D9D"/>
<circle cx="1207.15" cy="282.153" r="4" transform="rotate(-180 1207.15 282.153)" fill="#314D9D"/>
<circle cx="1194.15" cy="334.153" r="4" transform="rotate(-180 1194.15 334.153)" fill="#314D9D"/>
<circle cx="1194.15" cy="321.153" r="4" transform="rotate(-180 1194.15 321.153)" fill="#314D9D"/>
<circle cx="1194.15" cy="308.153" r="4" transform="rotate(-180 1194.15 308.153)" fill="#314D9D"/>
<circle cx="1194.15" cy="295.153" r="4" transform="rotate(-180 1194.15 295.153)" fill="#314D9D"/>
<circle cx="1194.15" cy="282.153" r="4" transform="rotate(-180 1194.15 282.153)" fill="#314D9D"/>
<circle cx="1181.15" cy="334.153" r="4" transform="rotate(-180 1181.15 334.153)" fill="#314D9D"/>
<circle cx="1181.15" cy="321.153" r="4" transform="rotate(-180 1181.15 321.153)" fill="#314D9D"/>
<circle cx="1181.15" cy="308.153" r="4" transform="rotate(-180 1181.15 308.153)" fill="#314D9D"/>
<circle cx="1181.15" cy="295.153" r="4" transform="rotate(-180 1181.15 295.153)" fill="#314D9D"/>
<circle cx="1181.15" cy="282.153" r="4" transform="rotate(-180 1181.15 282.153)" fill="#314D9D"/>
<circle cx="1168.15" cy="334.153" r="4" transform="rotate(-180 1168.15 334.153)" fill="#314D9D"/>
<circle cx="1168.15" cy="321.153" r="4" transform="rotate(-180 1168.15 321.153)" fill="#314D9D"/>
<circle cx="1168.15" cy="308.153" r="4" transform="rotate(-180 1168.15 308.153)" fill="#314D9D"/>
<circle cx="1168.15" cy="295.153" r="4" transform="rotate(-180 1168.15 295.153)" fill="#314D9D"/>
<circle cx="1168.15" cy="282.153" r="4" transform="rotate(-180 1168.15 282.153)" fill="#314D9D"/>
<circle cx="1155.15" cy="334.153" r="4" transform="rotate(-180 1155.15 334.153)" fill="#314D9D"/>
<circle cx="1155.15" cy="321.153" r="4" transform="rotate(-180 1155.15 321.153)" fill="#314D9D"/>
<circle cx="1155.15" cy="308.153" r="4" transform="rotate(-180 1155.15 308.153)" fill="#314D9D"/>
<circle cx="1155.15" cy="295.153" r="4" transform="rotate(-180 1155.15 295.153)" fill="#314D9D"/>
<circle cx="1155.15" cy="282.153" r="4" transform="rotate(-180 1155.15 282.153)" fill="#314D9D"/>
<circle r="4" transform="matrix(1 -8.74228e-08 -8.74228e-08 -1 305 334.153)" fill="#314D9D"/>
<circle r="4" transform="matrix(1 -8.74228e-08 -8.74228e-08 -1 305 321.153)" fill="#314D9D"/>
<circle r="4" transform="matrix(1 -8.74228e-08 -8.74228e-08 -1 305 308.153)" fill="#314D9D"/>
<circle r="4" transform="matrix(1 -8.74228e-08 -8.74228e-08 -1 305 295.153)" fill="#314D9D"/>
<circle r="4" transform="matrix(1 -8.74228e-08 -8.74228e-08 -1 305 282.153)" fill="#314D9D"/>
<circle r="4" transform="matrix(1 -8.74228e-08 -8.74228e-08 -1 318 334.153)" fill="#314D9D"/>
<circle r="4" transform="matrix(1 -8.74228e-08 -8.74228e-08 -1 318 321.153)" fill="#314D9D"/>
<circle r="4" transform="matrix(1 -8.74228e-08 -8.74228e-08 -1 318 308.153)" fill="#314D9D"/>
<circle r="4" transform="matrix(1 -8.74228e-08 -8.74228e-08 -1 318 295.153)" fill="#314D9D"/>
<circle r="4" transform="matrix(1 -8.74228e-08 -8.74228e-08 -1 318 282.153)" fill="#314D9D"/>
<circle r="4" transform="matrix(1 -8.74228e-08 -8.74228e-08 -1 331 334.153)" fill="#314D9D"/>
<circle r="4" transform="matrix(1 -8.74228e-08 -8.74228e-08 -1 331 321.153)" fill="#314D9D"/>
<circle r="4" transform="matrix(1 -8.74228e-08 -8.74228e-08 -1 331 308.153)" fill="#314D9D"/>
<circle r="4" transform="matrix(1 -8.74228e-08 -8.74228e-08 -1 331 295.153)" fill="#314D9D"/>
<circle r="4" transform="matrix(1 -8.74228e-08 -8.74228e-08 -1 331 282.153)" fill="#314D9D"/>
<circle r="4" transform="matrix(1 -8.74228e-08 -8.74228e-08 -1 344 334.153)" fill="#314D9D"/>
<circle r="4" transform="matrix(1 -8.74228e-08 -8.74228e-08 -1 344 321.153)" fill="#314D9D"/>
<circle r="4" transform="matrix(1 -8.74228e-08 -8.74228e-08 -1 344 308.153)" fill="#314D9D"/>
<circle r="4" transform="matrix(1 -8.74228e-08 -8.74228e-08 -1 344 295.153)" fill="#314D9D"/>
<circle r="4" transform="matrix(1 -8.74228e-08 -8.74228e-08 -1 344 282.153)" fill="#314D9D"/>
<circle r="4" transform="matrix(1 -8.74228e-08 -8.74228e-08 -1 357 334.153)" fill="#314D9D"/>
<circle r="4" transform="matrix(1 -8.74228e-08 -8.74228e-08 -1 357 321.153)" fill="#314D9D"/>
<circle r="4" transform="matrix(1 -8.74228e-08 -8.74228e-08 -1 357 308.153)" fill="#314D9D"/>
<circle r="4" transform="matrix(1 -8.74228e-08 -8.74228e-08 -1 357 295.153)" fill="#314D9D"/>
<circle r="4" transform="matrix(1 -8.74228e-08 -8.74228e-08 -1 357 282.153)" fill="#314D9D"/>
<circle cx="1508.15" cy="394.153" r="4" transform="rotate(-180 1508.15 394.153)" fill="#38B290"/>
<circle cx="1508.15" cy="381.153" r="4" transform="rotate(-180 1508.15 381.153)" fill="#38B290"/>
<circle cx="1508.15" cy="368.153" r="4" transform="rotate(-180 1508.15 368.153)" fill="#38B290"/>
<circle cx="1508.15" cy="355.153" r="4" transform="rotate(-180 1508.15 355.153)" fill="#38B290"/>
<circle cx="1508.15" cy="342.153" r="4" transform="rotate(-180 1508.15 342.153)" fill="#38B290"/>
<circle cx="1495.15" cy="394.153" r="4" transform="rotate(-180 1495.15 394.153)" fill="#38B290"/>
<circle cx="1495.15" cy="381.153" r="4" transform="rotate(-180 1495.15 381.153)" fill="#38B290"/>
<circle cx="1495.15" cy="368.153" r="4" transform="rotate(-180 1495.15 368.153)" fill="#38B290"/>
<circle cx="1495.15" cy="355.153" r="4" transform="rotate(-180 1495.15 355.153)" fill="#38B290"/>
<circle cx="1495.15" cy="342.153" r="4" transform="rotate(-180 1495.15 342.153)" fill="#38B290"/>
<circle cx="1482.15" cy="394.153" r="4" transform="rotate(-180 1482.15 394.153)" fill="#38B290"/>
<circle cx="1482.15" cy="381.153" r="4" transform="rotate(-180 1482.15 381.153)" fill="#38B290"/>
<circle cx="1482.15" cy="368.153" r="4" transform="rotate(-180 1482.15 368.153)" fill="#38B290"/>
<circle cx="1482.15" cy="355.153" r="4" transform="rotate(-180 1482.15 355.153)" fill="#38B290"/>
<circle cx="1482.15" cy="342.153" r="4" transform="rotate(-180 1482.15 342.153)" fill="#38B290"/>
<circle cx="1469.15" cy="394.153" r="4" transform="rotate(-180 1469.15 394.153)" fill="#38B290"/>
<circle cx="1469.15" cy="381.153" r="4" transform="rotate(-180 1469.15 381.153)" fill="#38B290"/>
<circle cx="1469.15" cy="368.153" r="4" transform="rotate(-180 1469.15 368.153)" fill="#38B290"/>
<circle cx="1469.15" cy="355.153" r="4" transform="rotate(-180 1469.15 355.153)" fill="#38B290"/>
<circle cx="1469.15" cy="342.153" r="4" transform="rotate(-180 1469.15 342.153)" fill="#38B290"/>
<circle cx="1456.15" cy="394.153" r="4" transform="rotate(-180 1456.15 394.153)" fill="#38B290"/>
<circle cx="1456.15" cy="381.153" r="4" transform="rotate(-180 1456.15 381.153)" fill="#38B290"/>
<circle cx="1456.15" cy="368.153" r="4" transform="rotate(-180 1456.15 368.153)" fill="#38B290"/>
<circle cx="1456.15" cy="355.153" r="4" transform="rotate(-180 1456.15 355.153)" fill="#38B290"/>
<circle cx="1456.15" cy="342.153" r="4" transform="rotate(-180 1456.15 342.153)" fill="#38B290"/>
<circle r="4" transform="matrix(1 -8.74228e-08 -8.74228e-08 -1 4 394.153)" fill="#38B290"/>
<circle r="4" transform="matrix(1 -8.74228e-08 -8.74228e-08 -1 4 381.153)" fill="#38B290"/>
<circle r="4" transform="matrix(1 -8.74228e-08 -8.74228e-08 -1 4 368.153)" fill="#38B290"/>
<circle r="4" transform="matrix(1 -8.74228e-08 -8.74228e-08 -1 4 355.153)" fill="#38B290"/>
<circle r="4" transform="matrix(1 -8.74228e-08 -8.74228e-08 -1 4 342.153)" fill="#38B290"/>
<circle r="4" transform="matrix(1 -8.74228e-08 -8.74228e-08 -1 17 394.153)" fill="#38B290"/>
<circle r="4" transform="matrix(1 -8.74228e-08 -8.74228e-08 -1 17 381.153)" fill="#38B290"/>
<circle r="4" transform="matrix(1 -8.74228e-08 -8.74228e-08 -1 17 368.153)" fill="#38B290"/>
<circle r="4" transform="matrix(1 -8.74228e-08 -8.74228e-08 -1 17 355.153)" fill="#38B290"/>
<circle r="4" transform="matrix(1 -8.74228e-08 -8.74228e-08 -1 17 342.153)" fill="#38B290"/>
<circle r="4" transform="matrix(1 -8.74228e-08 -8.74228e-08 -1 30 394.153)" fill="#38B290"/>
<circle r="4" transform="matrix(1 -8.74228e-08 -8.74228e-08 -1 30 381.153)" fill="#38B290"/>
<circle r="4" transform="matrix(1 -8.74228e-08 -8.74228e-08 -1 30 368.153)" fill="#38B290"/>
<circle r="4" transform="matrix(1 -8.74228e-08 -8.74228e-08 -1 30 355.153)" fill="#38B290"/>
<circle r="4" transform="matrix(1 -8.74228e-08 -8.74228e-08 -1 30 342.153)" fill="#38B290"/>
<circle r="4" transform="matrix(1 -8.74228e-08 -8.74228e-08 -1 43 394.153)" fill="#38B290"/>
<circle r="4" transform="matrix(1 -8.74228e-08 -8.74228e-08 -1 43 381.153)" fill="#38B290"/>
<circle r="4" transform="matrix(1 -8.74228e-08 -8.74228e-08 -1 43 368.153)" fill="#38B290"/>
<circle r="4" transform="matrix(1 -8.74228e-08 -8.74228e-08 -1 43 355.153)" fill="#38B290"/>
<circle r="4" transform="matrix(1 -8.74228e-08 -8.74228e-08 -1 43 342.153)" fill="#38B290"/>
<circle r="4" transform="matrix(1 -8.74228e-08 -8.74228e-08 -1 56 394.153)" fill="#38B290"/>
<circle r="4" transform="matrix(1 -8.74228e-08 -8.74228e-08 -1 56 381.153)" fill="#38B290"/>
<circle r="4" transform="matrix(1 -8.74228e-08 -8.74228e-08 -1 56 368.153)" fill="#38B290"/>
<circle r="4" transform="matrix(1 -8.74228e-08 -8.74228e-08 -1 56 355.153)" fill="#38B290"/>
<circle r="4" transform="matrix(1 -8.74228e-08 -8.74228e-08 -1 56 342.153)" fill="#38B290"/>
<circle cx="1508.15" cy="153.153" r="4" transform="rotate(-180 1508.15 153.153)" fill="#38B290"/>
<circle cx="1508.15" cy="140.153" r="4" transform="rotate(-180 1508.15 140.153)" fill="#38B290"/>
<circle cx="1508.15" cy="127.153" r="4" transform="rotate(-180 1508.15 127.153)" fill="#38B290"/>
<circle cx="1508.15" cy="114.153" r="4" transform="rotate(-180 1508.15 114.153)" fill="#38B290"/>
<circle cx="1508.15" cy="101.153" r="4" transform="rotate(-180 1508.15 101.153)" fill="#38B290"/>
<circle cx="1495.15" cy="153.153" r="4" transform="rotate(-180 1495.15 153.153)" fill="#38B290"/>
<circle cx="1495.15" cy="140.153" r="4" transform="rotate(-180 1495.15 140.153)" fill="#38B290"/>
<circle cx="1495.15" cy="127.153" r="4" transform="rotate(-180 1495.15 127.153)" fill="#38B290"/>
<circle cx="1495.15" cy="114.153" r="4" transform="rotate(-180 1495.15 114.153)" fill="#38B290"/>
<circle cx="1495.15" cy="101.153" r="4" transform="rotate(-180 1495.15 101.153)" fill="#38B290"/>
<circle cx="1482.15" cy="153.153" r="4" transform="rotate(-180 1482.15 153.153)" fill="#38B290"/>
<circle cx="1482.15" cy="140.153" r="4" transform="rotate(-180 1482.15 140.153)" fill="#38B290"/>
<circle cx="1482.15" cy="127.153" r="4" transform="rotate(-180 1482.15 127.153)" fill="#38B290"/>
<circle cx="1482.15" cy="114.153" r="4" transform="rotate(-180 1482.15 114.153)" fill="#38B290"/>
<circle cx="1482.15" cy="101.153" r="4" transform="rotate(-180 1482.15 101.153)" fill="#38B290"/>
<circle cx="1469.15" cy="153.153" r="4" transform="rotate(-180 1469.15 153.153)" fill="#38B290"/>
<circle cx="1469.15" cy="140.153" r="4" transform="rotate(-180 1469.15 140.153)" fill="#38B290"/>
<circle cx="1469.15" cy="127.153" r="4" transform="rotate(-180 1469.15 127.153)" fill="#38B290"/>
<circle cx="1469.15" cy="114.153" r="4" transform="rotate(-180 1469.15 114.153)" fill="#38B290"/>
<circle cx="1469.15" cy="101.153" r="4" transform="rotate(-180 1469.15 101.153)" fill="#38B290"/>
<circle cx="1456.15" cy="153.153" r="4" transform="rotate(-180 1456.15 153.153)" fill="#38B290"/>
<circle cx="1456.15" cy="140.153" r="4" transform="rotate(-180 1456.15 140.153)" fill="#38B290"/>
<circle cx="1456.15" cy="127.153" r="4" transform="rotate(-180 1456.15 127.153)" fill="#38B290"/>
<circle cx="1456.15" cy="114.153" r="4" transform="rotate(-180 1456.15 114.153)" fill="#38B290"/>
<circle cx="1456.15" cy="101.153" r="4" transform="rotate(-180 1456.15 101.153)" fill="#38B290"/>
<circle r="4" transform="matrix(1 -8.74228e-08 -8.74228e-08 -1 4 153.153)" fill="#38B290"/>
<circle r="4" transform="matrix(1 -8.74228e-08 -8.74228e-08 -1 4 140.153)" fill="#38B290"/>
<circle r="4" transform="matrix(1 -8.74228e-08 -8.74228e-08 -1 4 127.153)" fill="#38B290"/>
<circle r="4" transform="matrix(1 -8.74228e-08 -8.74228e-08 -1 4 114.153)" fill="#38B290"/>
<circle r="4" transform="matrix(1 -8.74228e-08 -8.74228e-08 -1 4 101.153)" fill="#38B290"/>
<circle r="4" transform="matrix(1 -8.74228e-08 -8.74228e-08 -1 17 153.153)" fill="#38B290"/>
<circle r="4" transform="matrix(1 -8.74228e-08 -8.74228e-08 -1 17 140.153)" fill="#38B290"/>
<circle r="4" transform="matrix(1 -8.74228e-08 -8.74228e-08 -1 17 127.153)" fill="#38B290"/>
<circle r="4" transform="matrix(1 -8.74228e-08 -8.74228e-08 -1 17 114.153)" fill="#38B290"/>
<circle r="4" transform="matrix(1 -8.74228e-08 -8.74228e-08 -1 17 101.153)" fill="#38B290"/>
<circle r="4" transform="matrix(1 -8.74228e-08 -8.74228e-08 -1 30 153.153)" fill="#38B290"/>
<circle r="4" transform="matrix(1 -8.74228e-08 -8.74228e-08 -1 30 140.153)" fill="#38B290"/>
<circle r="4" transform="matrix(1 -8.74228e-08 -8.74228e-08 -1 30 127.153)" fill="#38B290"/>
<circle r="4" transform="matrix(1 -8.74228e-08 -8.74228e-08 -1 30 114.153)" fill="#38B290"/>
<circle r="4" transform="matrix(1 -8.74228e-08 -8.74228e-08 -1 30 101.153)" fill="#38B290"/>
<circle r="4" transform="matrix(1 -8.74228e-08 -8.74228e-08 -1 43 153.153)" fill="#38B290"/>
<circle r="4" transform="matrix(1 -8.74228e-08 -8.74228e-08 -1 43 140.153)" fill="#38B290"/>
<circle r="4" transform="matrix(1 -8.74228e-08 -8.74228e-08 -1 43 127.153)" fill="#38B290"/>
<circle r="4" transform="matrix(1 -8.74228e-08 -8.74228e-08 -1 43 114.153)" fill="#38B290"/>
<circle r="4" transform="matrix(1 -8.74228e-08 -8.74228e-08 -1 43 101.153)" fill="#38B290"/>
<circle r="4" transform="matrix(1 -8.74228e-08 -8.74228e-08 -1 56 153.153)" fill="#38B290"/>
<circle r="4" transform="matrix(1 -8.74228e-08 -8.74228e-08 -1 56 140.153)" fill="#38B290"/>
<circle r="4" transform="matrix(1 -8.74228e-08 -8.74228e-08 -1 56 127.153)" fill="#38B290"/>
<circle r="4" transform="matrix(1 -8.74228e-08 -8.74228e-08 -1 56 114.153)" fill="#38B290"/>
<circle r="4" transform="matrix(1 -8.74228e-08 -8.74228e-08 -1 56 101.153)" fill="#38B290"/>
<circle cx="1267.15" cy="274.153" r="4" transform="rotate(-180 1267.15 274.153)" fill="#38B290"/>
<circle cx="1267.15" cy="261.153" r="4" transform="rotate(-180 1267.15 261.153)" fill="#38B290"/>
<circle cx="1267.15" cy="248.153" r="4" transform="rotate(-180 1267.15 248.153)" fill="#38B290"/>
<circle cx="1267.15" cy="235.153" r="4" transform="rotate(-180 1267.15 235.153)" fill="#38B290"/>
<circle cx="1267.15" cy="222.153" r="4" transform="rotate(-180 1267.15 222.153)" fill="#38B290"/>
<circle cx="1254.15" cy="274.153" r="4" transform="rotate(-180 1254.15 274.153)" fill="#38B290"/>
<circle cx="1254.15" cy="261.153" r="4" transform="rotate(-180 1254.15 261.153)" fill="#38B290"/>
<circle cx="1254.15" cy="248.153" r="4" transform="rotate(-180 1254.15 248.153)" fill="#38B290"/>
<circle cx="1254.15" cy="235.153" r="4" transform="rotate(-180 1254.15 235.153)" fill="#38B290"/>
<circle cx="1254.15" cy="222.153" r="4" transform="rotate(-180 1254.15 222.153)" fill="#38B290"/>
<circle cx="1241.15" cy="274.153" r="4" transform="rotate(-180 1241.15 274.153)" fill="#38B290"/>
<circle cx="1241.15" cy="261.153" r="4" transform="rotate(-180 1241.15 261.153)" fill="#38B290"/>
<circle cx="1241.15" cy="248.153" r="4" transform="rotate(-180 1241.15 248.153)" fill="#38B290"/>
<circle cx="1241.15" cy="235.153" r="4" transform="rotate(-180 1241.15 235.153)" fill="#38B290"/>
<circle cx="1241.15" cy="222.153" r="4" transform="rotate(-180 1241.15 222.153)" fill="#38B290"/>
<circle cx="1228.15" cy="274.153" r="4" transform="rotate(-180 1228.15 274.153)" fill="#38B290"/>
<circle cx="1228.15" cy="261.153" r="4" transform="rotate(-180 1228.15 261.153)" fill="#38B290"/>
<circle cx="1228.15" cy="248.153" r="4" transform="rotate(-180 1228.15 248.153)" fill="#38B290"/>
<circle cx="1228.15" cy="235.153" r="4" transform="rotate(-180 1228.15 235.153)" fill="#38B290"/>
<circle cx="1228.15" cy="222.153" r="4" transform="rotate(-180 1228.15 222.153)" fill="#38B290"/>
<circle cx="1215.15" cy="274.153" r="4" transform="rotate(-180 1215.15 274.153)" fill="#38B290"/>
<circle cx="1215.15" cy="261.153" r="4" transform="rotate(-180 1215.15 261.153)" fill="#38B290"/>
<circle cx="1215.15" cy="248.153" r="4" transform="rotate(-180 1215.15 248.153)" fill="#38B290"/>
<circle cx="1215.15" cy="235.153" r="4" transform="rotate(-180 1215.15 235.153)" fill="#38B290"/>
<circle cx="1215.15" cy="222.153" r="4" transform="rotate(-180 1215.15 222.153)" fill="#38B290"/>
<circle r="4" transform="matrix(1 -8.74228e-08 -8.74228e-08 -1 245 274.153)" fill="#38B290"/>
<circle r="4" transform="matrix(1 -8.74228e-08 -8.74228e-08 -1 245 261.153)" fill="#38B290"/>
<circle r="4" transform="matrix(1 -8.74228e-08 -8.74228e-08 -1 245 248.153)" fill="#38B290"/>
<circle r="4" transform="matrix(1 -8.74228e-08 -8.74228e-08 -1 245 235.153)" fill="#38B290"/>
<circle r="4" transform="matrix(1 -8.74228e-08 -8.74228e-08 -1 245 222.153)" fill="#38B290"/>
<circle r="4" transform="matrix(1 -8.74228e-08 -8.74228e-08 -1 258 274.153)" fill="#38B290"/>
<circle r="4" transform="matrix(1 -8.74228e-08 -8.74228e-08 -1 258 261.153)" fill="#38B290"/>
<circle r="4" transform="matrix(1 -8.74228e-08 -8.74228e-08 -1 258 248.153)" fill="#38B290"/>
<circle r="4" transform="matrix(1 -8.74228e-08 -8.74228e-08 -1 258 235.153)" fill="#38B290"/>
<circle r="4" transform="matrix(1 -8.74228e-08 -8.74228e-08 -1 258 222.153)" fill="#38B290"/>
<circle r="4" transform="matrix(1 -8.74228e-08 -8.74228e-08 -1 271 274.153)" fill="#38B290"/>
<circle r="4" transform="matrix(1 -8.74228e-08 -8.74228e-08 -1 271 261.153)" fill="#38B290"/>
<circle r="4" transform="matrix(1 -8.74228e-08 -8.74228e-08 -1 271 248.153)" fill="#38B290"/>
<circle r="4" transform="matrix(1 -8.74228e-08 -8.74228e-08 -1 271 235.153)" fill="#38B290"/>
<circle r="4" transform="matrix(1 -8.74228e-08 -8.74228e-08 -1 271 222.153)" fill="#38B290"/>
<circle r="4" transform="matrix(1 -8.74228e-08 -8.74228e-08 -1 284 274.153)" fill="#38B290"/>
<circle r="4" transform="matrix(1 -8.74228e-08 -8.74228e-08 -1 284 261.153)" fill="#38B290"/>
<circle r="4" transform="matrix(1 -8.74228e-08 -8.74228e-08 -1 284 248.153)" fill="#38B290"/>
<circle r="4" transform="matrix(1 -8.74228e-08 -8.74228e-08 -1 284 235.153)" fill="#38B290"/>
<circle r="4" transform="matrix(1 -8.74228e-08 -8.74228e-08 -1 284 222.153)" fill="#38B290"/>
<circle r="4" transform="matrix(1 -8.74228e-08 -8.74228e-08 -1 297 274.153)" fill="#38B290"/>
<circle r="4" transform="matrix(1 -8.74228e-08 -8.74228e-08 -1 297 261.153)" fill="#38B290"/>
<circle r="4" transform="matrix(1 -8.74228e-08 -8.74228e-08 -1 297 248.153)" fill="#38B290"/>
<circle r="4" transform="matrix(1 -8.74228e-08 -8.74228e-08 -1 297 235.153)" fill="#38B290"/>
<circle r="4" transform="matrix(1 -8.74228e-08 -8.74228e-08 -1 297 222.153)" fill="#38B290"/>
<circle r="4" transform="matrix(1 -8.74228e-08 -8.74228e-08 -1 486 515.153)" fill="#38B290"/>
<circle r="4" transform="matrix(1 -8.74228e-08 -8.74228e-08 -1 486 502.153)" fill="#38B290"/>
<circle r="4" transform="matrix(1 -8.74228e-08 -8.74228e-08 -1 486 489.153)" fill="#38B290"/>
<circle r="4" transform="matrix(1 -8.74228e-08 -8.74228e-08 -1 486 476.153)" fill="#38B290"/>
<circle r="4" transform="matrix(1 -8.74228e-08 -8.74228e-08 -1 486 463.153)" fill="#38B290"/>
<circle r="4" transform="matrix(1 -8.74228e-08 -8.74228e-08 -1 499 515.153)" fill="#38B290"/>
<circle r="4" transform="matrix(1 -8.74228e-08 -8.74228e-08 -1 499 502.153)" fill="#38B290"/>
<circle r="4" transform="matrix(1 -8.74228e-08 -8.74228e-08 -1 499 489.153)" fill="#38B290"/>
<circle r="4" transform="matrix(1 -8.74228e-08 -8.74228e-08 -1 499 476.153)" fill="#38B290"/>
<circle r="4" transform="matrix(1 -8.74228e-08 -8.74228e-08 -1 499 463.153)" fill="#38B290"/>
<circle r="4" transform="matrix(1 -8.74228e-08 -8.74228e-08 -1 512 515.153)" fill="#38B290"/>
<circle r="4" transform="matrix(1 -8.74228e-08 -8.74228e-08 -1 512 502.153)" fill="#38B290"/>
<circle r="4" transform="matrix(1 -8.74228e-08 -8.74228e-08 -1 512 489.153)" fill="#38B290"/>
<circle r="4" transform="matrix(1 -8.74228e-08 -8.74228e-08 -1 512 476.153)" fill="#38B290"/>
<circle r="4" transform="matrix(1 -8.74228e-08 -8.74228e-08 -1 512 463.153)" fill="#38B290"/>
<circle r="4" transform="matrix(1 -8.74228e-08 -8.74228e-08 -1 525 515.153)" fill="#38B290"/>
<circle r="4" transform="matrix(1 -8.74228e-08 -8.74228e-08 -1 525 502.153)" fill="#38B290"/>
<circle r="4" transform="matrix(1 -8.74228e-08 -8.74228e-08 -1 525 489.153)" fill="#38B290"/>
<circle r="4" transform="matrix(1 -8.74228e-08 -8.74228e-08 -1 525 476.153)" fill="#38B290"/>
<circle r="4" transform="matrix(1 -8.74228e-08 -8.74228e-08 -1 525 463.153)" fill="#38B290"/>
<circle r="4" transform="matrix(1 -8.74228e-08 -8.74228e-08 -1 538 515.153)" fill="#38B290"/>
<circle r="4" transform="matrix(1 -8.74228e-08 -8.74228e-08 -1 538 502.153)" fill="#38B290"/>
<circle r="4" transform="matrix(1 -8.74228e-08 -8.74228e-08 -1 538 489.153)" fill="#38B290"/>
<circle r="4" transform="matrix(1 -8.74228e-08 -8.74228e-08 -1 538 476.153)" fill="#38B290"/>
<circle r="4" transform="matrix(1 -8.74228e-08 -8.74228e-08 -1 538 463.153)" fill="#38B290"/>
<circle cx="1327.15" cy="514.153" r="4" transform="rotate(-180 1327.15 514.153)" fill="#38B290"/>
<circle cx="1327.15" cy="501.153" r="4" transform="rotate(-180 1327.15 501.153)" fill="#38B290"/>
<circle cx="1327.15" cy="488.153" r="4" transform="rotate(-180 1327.15 488.153)" fill="#38B290"/>
<circle cx="1327.15" cy="475.153" r="4" transform="rotate(-180 1327.15 475.153)" fill="#38B290"/>
<circle cx="1327.15" cy="462.153" r="4" transform="rotate(-180 1327.15 462.153)" fill="#38B290"/>
<circle cx="1314.15" cy="514.153" r="4" transform="rotate(-180 1314.15 514.153)" fill="#38B290"/>
<circle cx="1314.15" cy="501.153" r="4" transform="rotate(-180 1314.15 501.153)" fill="#38B290"/>
<circle cx="1314.15" cy="488.153" r="4" transform="rotate(-180 1314.15 488.153)" fill="#38B290"/>
<circle cx="1314.15" cy="475.153" r="4" transform="rotate(-180 1314.15 475.153)" fill="#38B290"/>
<circle cx="1314.15" cy="462.153" r="4" transform="rotate(-180 1314.15 462.153)" fill="#38B290"/>
<circle cx="1301.15" cy="514.153" r="4" transform="rotate(-180 1301.15 514.153)" fill="#38B290"/>
<circle cx="1301.15" cy="501.153" r="4" transform="rotate(-180 1301.15 501.153)" fill="#38B290"/>
<circle cx="1301.15" cy="488.153" r="4" transform="rotate(-180 1301.15 488.153)" fill="#38B290"/>
<circle cx="1301.15" cy="475.153" r="4" transform="rotate(-180 1301.15 475.153)" fill="#38B290"/>
<circle cx="1301.15" cy="462.153" r="4" transform="rotate(-180 1301.15 462.153)" fill="#38B290"/>
<circle cx="1288.15" cy="514.153" r="4" transform="rotate(-180 1288.15 514.153)" fill="#38B290"/>
<circle cx="1288.15" cy="501.153" r="4" transform="rotate(-180 1288.15 501.153)" fill="#38B290"/>
<circle cx="1288.15" cy="488.153" r="4" transform="rotate(-180 1288.15 488.153)" fill="#38B290"/>
<circle cx="1288.15" cy="475.153" r="4" transform="rotate(-180 1288.15 475.153)" fill="#38B290"/>
<circle cx="1288.15" cy="462.153" r="4" transform="rotate(-180 1288.15 462.153)" fill="#38B290"/>
<circle cx="1275.15" cy="514.153" r="4" transform="rotate(-180 1275.15 514.153)" fill="#38B290"/>
<circle cx="1275.15" cy="501.153" r="4" transform="rotate(-180 1275.15 501.153)" fill="#38B290"/>
<circle cx="1275.15" cy="488.153" r="4" transform="rotate(-180 1275.15 488.153)" fill="#38B290"/>
<circle cx="1275.15" cy="475.153" r="4" transform="rotate(-180 1275.15 475.153)" fill="#38B290"/>
<circle cx="1275.15" cy="462.153" r="4" transform="rotate(-180 1275.15 462.153)" fill="#38B290"/>
<circle r="4" transform="matrix(1 -8.74228e-08 -8.74228e-08 -1 124 514.153)" fill="#38B290"/>
<circle r="4" transform="matrix(1 -8.74228e-08 -8.74228e-08 -1 124 501.153)" fill="#38B290"/>
<circle r="4" transform="matrix(1 -8.74228e-08 -8.74228e-08 -1 124 488.153)" fill="#38B290"/>
<circle r="4" transform="matrix(1 -8.74228e-08 -8.74228e-08 -1 124 475.153)" fill="#38B290"/>
<circle r="4" transform="matrix(1 -8.74228e-08 -8.74228e-08 -1 124 462.153)" fill="#38B290"/>
<circle r="4" transform="matrix(1 -8.74228e-08 -8.74228e-08 -1 137 514.153)" fill="#38B290"/>
<circle r="4" transform="matrix(1 -8.74228e-08 -8.74228e-08 -1 137 501.153)" fill="#38B290"/>
<circle r="4" transform="matrix(1 -8.74228e-08 -8.74228e-08 -1 137 488.153)" fill="#38B290"/>
<circle r="4" transform="matrix(1 -8.74228e-08 -8.74228e-08 -1 137 475.153)" fill="#38B290"/>
<circle r="4" transform="matrix(1 -8.74228e-08 -8.74228e-08 -1 137 462.153)" fill="#38B290"/>
<circle r="4" transform="matrix(1 -8.74228e-08 -8.74228e-08 -1 150 514.153)" fill="#38B290"/>
<circle r="4" transform="matrix(1 -8.74228e-08 -8.74228e-08 -1 150 501.153)" fill="#38B290"/>
<circle r="4" transform="matrix(1 -8.74228e-08 -8.74228e-08 -1 150 488.153)" fill="#38B290"/>
<circle r="4" transform="matrix(1 -8.74228e-08 -8.74228e-08 -1 150 475.153)" fill="#38B290"/>
<circle r="4" transform="matrix(1 -8.74228e-08 -8.74228e-08 -1 150 462.153)" fill="#38B290"/>
<circle r="4" transform="matrix(1 -8.74228e-08 -8.74228e-08 -1 163 514.153)" fill="#38B290"/>
<circle r="4" transform="matrix(1 -8.74228e-08 -8.74228e-08 -1 163 501.153)" fill="#38B290"/>
<circle r="4" transform="matrix(1 -8.74228e-08 -8.74228e-08 -1 163 488.153)" fill="#38B290"/>
<circle r="4" transform="matrix(1 -8.74228e-08 -8.74228e-08 -1 163 475.153)" fill="#38B290"/>
<circle r="4" transform="matrix(1 -8.74228e-08 -8.74228e-08 -1 163 462.153)" fill="#38B290"/>
<circle r="4" transform="matrix(1 -8.74228e-08 -8.74228e-08 -1 176 514.153)" fill="#38B290"/>
<circle r="4" transform="matrix(1 -8.74228e-08 -8.74228e-08 -1 176 501.153)" fill="#38B290"/>
<circle r="4" transform="matrix(1 -8.74228e-08 -8.74228e-08 -1 176 488.153)" fill="#38B290"/>
<circle r="4" transform="matrix(1 -8.74228e-08 -8.74228e-08 -1 176 475.153)" fill="#38B290"/>
<circle r="4" transform="matrix(1 -8.74228e-08 -8.74228e-08 -1 176 462.153)" fill="#38B290"/>
<defs>
<linearGradient id="paint0_linear_6_744" x1="1452.15" y1="518.153" x2="1512.15" y2="578.153" gradientUnits="userSpaceOnUse">
<stop stop-color="#314D9D"/>
<stop offset="1" stop-color="#314D9D" stop-opacity="0"/>
</linearGradient>
<linearGradient id="paint1_linear_6_744" x1="0" y1="0" x2="60" y2="60" gradientUnits="userSpaceOnUse">
<stop stop-color="#314D9D"/>
<stop offset="1" stop-color="#314D9D" stop-opacity="0"/>
</linearGradient>
<linearGradient id="paint2_linear_6_744" x1="0" y1="0" x2="60" y2="60" gradientUnits="userSpaceOnUse">
<stop stop-color="#314D9D"/>
<stop offset="1" stop-color="#314D9D" stop-opacity="0"/>
</linearGradient>
<linearGradient id="paint3_linear_6_744" x1="1452.15" y1="277.153" x2="1512.15" y2="337.153" gradientUnits="userSpaceOnUse">
<stop stop-color="#314D9D"/>
<stop offset="1" stop-color="#314D9D" stop-opacity="0"/>
</linearGradient>
<linearGradient id="paint4_linear_6_744" x1="0" y1="0" x2="60" y2="60" gradientUnits="userSpaceOnUse">
<stop stop-color="#314D9D"/>
<stop offset="1" stop-color="#314D9D" stop-opacity="0"/>
</linearGradient>
<linearGradient id="paint5_linear_6_744" x1="0" y1="0" x2="60" y2="60" gradientUnits="userSpaceOnUse">
<stop stop-color="#314D9D"/>
<stop offset="1" stop-color="#314D9D" stop-opacity="0"/>
</linearGradient>
<linearGradient id="paint6_linear_6_744" x1="1392.15" y1="338.153" x2="1452.15" y2="398.153" gradientUnits="userSpaceOnUse">
<stop stop-color="white"/>
<stop offset="1" stop-color="#314D9D"/>
</linearGradient>
<linearGradient id="paint7_linear_6_744" x1="0" y1="0" x2="60" y2="60" gradientUnits="userSpaceOnUse">
<stop stop-color="white"/>
<stop offset="1" stop-color="#314D9D"/>
</linearGradient>
<linearGradient id="paint8_linear_6_744" x1="1331.15" y1="217.153" x2="1391.15" y2="277.153" gradientUnits="userSpaceOnUse">
<stop stop-color="white"/>
<stop offset="1" stop-color="#314D9D"/>
</linearGradient>
<linearGradient id="paint9_linear_6_744" x1="0" y1="0" x2="60" y2="60" gradientUnits="userSpaceOnUse">
<stop stop-color="white"/>
<stop offset="1" stop-color="#314D9D"/>
</linearGradient>
<linearGradient id="paint10_linear_6_744" x1="1512.15" y1="458.153" x2="1572.15" y2="518.153" gradientUnits="userSpaceOnUse">
<stop stop-color="#38B290"/>
<stop offset="1" stop-color="#38B290" stop-opacity="0"/>
</linearGradient>
<linearGradient id="paint11_linear_6_744" x1="0" y1="0" x2="60" y2="60" gradientUnits="userSpaceOnUse">
<stop stop-color="#38B290"/>
<stop offset="1" stop-color="#38B290" stop-opacity="0"/>
</linearGradient>
<linearGradient id="paint12_linear_6_744" x1="0" y1="0" x2="60" y2="60" gradientUnits="userSpaceOnUse">
<stop stop-color="#38B290"/>
<stop offset="1" stop-color="#38B290" stop-opacity="0"/>
</linearGradient>
<linearGradient id="paint13_linear_6_744" x1="1512.15" y1="217.153" x2="1572.15" y2="277.153" gradientUnits="userSpaceOnUse">
<stop stop-color="#38B290"/>
<stop offset="1" stop-color="#38B290" stop-opacity="0"/>
</linearGradient>
<linearGradient id="paint14_linear_6_744" x1="0" y1="0" x2="60" y2="60" gradientUnits="userSpaceOnUse">
<stop stop-color="#38B290"/>
<stop offset="1" stop-color="#38B290" stop-opacity="0"/>
</linearGradient>
<linearGradient id="paint15_linear_6_744" x1="1271.15" y1="338.153" x2="1331.15" y2="398.153" gradientUnits="userSpaceOnUse">
<stop stop-color="#38B290"/>
<stop offset="1" stop-color="#38B290" stop-opacity="0"/>
</linearGradient>
<linearGradient id="paint16_linear_6_744" x1="0" y1="0" x2="60" y2="60" gradientUnits="userSpaceOnUse">
<stop stop-color="#38B290"/>
<stop offset="1" stop-color="#38B290" stop-opacity="0"/>
</linearGradient>
<linearGradient id="paint17_linear_6_744" x1="1392.15" y1="398.153" x2="1452.15" y2="458.153" gradientUnits="userSpaceOnUse">
<stop stop-color="#38B290"/>
<stop offset="1" stop-color="#38B290" stop-opacity="0"/>
</linearGradient>
<linearGradient id="paint18_linear_6_744" x1="0" y1="0" x2="60" y2="60" gradientUnits="userSpaceOnUse">
<stop stop-color="#38B290"/>
<stop offset="1" stop-color="#38B290" stop-opacity="0"/>
</linearGradient>
<linearGradient id="paint19_linear_6_744" x1="1392.15" y1="157.153" x2="1452.15" y2="217.153" gradientUnits="userSpaceOnUse">
<stop stop-color="#38B290"/>
<stop offset="1" stop-color="#38B290" stop-opacity="0"/>
</linearGradient>
<linearGradient id="paint20_linear_6_744" x1="0" y1="0" x2="60" y2="60" gradientUnits="userSpaceOnUse">
<stop stop-color="#38B290"/>
<stop offset="1" stop-color="#38B290" stop-opacity="0"/>
</linearGradient>
</defs>
</svg>
